<?xml version="1.0" encoding="UTF-8"?><svg id="Layer_1" xmlns="http://www.w3.org/2000/svg" viewBox="0 0 583 146"><defs><style>.cls-1{fill:currentColor;}</style></defs><g id="Button4"><path class="cls-1" d="M37.03,50.74l-.91-4.46-.91,4.46c-2.19,10.75-10.58,19.15-21.31,21.34l-4.45.91,4.45.91c10.73,2.2,19.11,10.6,21.31,21.34l.91,4.46.91-4.46c2.19-10.75,10.58-19.15,21.31-21.34l4.45-.91-4.45-.91c-10.73-2.2-19.11-10.6-21.31-21.34Z"/><path class="cls-1" d="M545.97,95.26l.91,4.46.91-4.46c2.19-10.75,10.58-19.15,21.31-21.34l4.45-.91-4.45-.91c-10.73-2.2-19.11-10.6-21.31-21.34l-.91-4.46-.91,4.46c-2.19,10.75-10.58,19.15-21.31,21.34l-4.45.91,4.45.91c10.73,2.2,19.11,10.6,21.31,21.34Z"/><path class="cls-1" d="M33.71,10.62C39.72,12.03,16.98-2.74,14.85.45,12.73,3.65-1.61,27.59.15,29.36c1.76,1.76,25.02-20.75,33.56-18.74Z"/><path class="cls-1" d="M33.71,135.38C25.17,137.4,1.91,114.88.15,116.64c-1.76,1.76,12.58,25.71,14.7,28.9,2.13,3.19,24.87-11.58,18.86-10.16Z"/><path class="cls-1" d="M549.29,10.62c8.55-2.01,31.8,20.5,33.56,18.74,1.76-1.76-12.58-25.71-14.7-28.9-2.13-3.19-24.87,11.58-18.86,10.16Z"/><path class="cls-1" d="M549.29,135.38c-6.01-1.42,16.73,13.36,18.86,10.16,2.13-3.19,16.47-27.14,14.7-28.9-1.76-1.76-25.02,20.75-33.56,18.74Z"/><path class="cls-1" d="M107.44,20.13c71.17,1.39,157.1-1.62,176.09,2.12,26.71,5.26-19.75-16.29-50.61-15.53-15.31.31-123.32,3.37-175.48,5.35C26.17,12.34-3.17,41.42.95,73c1.97-20.49,13.16-40.36,33.1-48.99,22.78-9.24,49.14-2.73,73.39-3.87Z"/><path class="cls-1" d="M57.44,133.93c52.16,1.98,160.17,5.04,175.48,5.35,30.86.75,77.33-20.79,50.61-15.53-18.99,3.74-104.91.73-176.09,2.12-24.25-1.14-50.61,5.37-73.39-3.87C14.11,113.36,2.93,93.49.95,73c-4.12,31.58,25.22,60.66,56.48,60.93Z"/><path class="cls-1" d="M525.56,12.07c-52.16-1.98-160.17-5.04-175.48-5.35-30.86-.75-77.33,20.79-50.61,15.53,18.99-3.74,104.91-.73,176.09-2.12,24.25,1.14,50.61-5.37,73.39,3.87,19.94,8.63,31.12,28.51,33.1,48.99,4.12-31.58-25.22-60.66-56.48-60.93Z"/><path class="cls-1" d="M582.05,73c-1.97,20.49-13.16,40.36-33.1,48.99-22.78,9.24-49.14,2.73-73.39,3.87-71.17-1.39-157.1,1.62-176.09-2.12-26.71-5.26,19.75,16.29,50.61,15.53,15.31-.31,123.32-3.37,175.48-5.35,31.27-.26,60.61-29.34,56.48-60.93Z"/></g></svg>