<?xml version="1.0" encoding="UTF-8"?><svg id="Layer_1" xmlns="http://www.w3.org/2000/svg" viewBox="0 0 570 163"><defs><style>.cls-1{fill:currentColor;}</style></defs><g id="Button3"><path class="cls-1" d="M10.38,12.3c11.35-1.53,2.48-17.11-6.28-10.81C-4.36,6.77,1.47,20.21,10.72,20.01c25.47-.69,64.17-1.51,70.7-.44,11.23,1.25-8.54-6.6-21.43-5.82-3.22.21-2.92.38-13.44,1.06-10.47.7-23.24,1.56-35.61,2.39-5.25.3-9.82-4.99-8.69-10.11.51-2.21,2.15-4.08,4.25-4.92,7.36-3.23,12.06,8.41,3.88,10.15Z"/><path class="cls-1" d="M559.62,150.7c-11.35,1.53-2.48,17.11,6.28,10.81,8.45-5.28,2.63-18.71-6.62-18.51-25.47.69-64.17,1.51-70.7.44-11.23-1.25,8.54,6.6,21.43,5.82,3.22-.21,2.92-.38,13.44-1.06,10.47-.7,23.24-1.56,35.61-2.39,5.25-.3,9.82,4.99,8.69,10.11-.51,2.21-2.15,4.08-4.25,4.92-7.36,3.23-12.06-8.41-3.88-10.15Z"/><path class="cls-1" d="M11.79,25.37c167.51,4.02,366.14,2.48,540.15,6.85-1.06,26.5-1.57,65.38-3.66,88.02-2.46,26.41,2.06,18.88,7.49-3.27,7.14-29.39,13.04-69.23,12.87-101.44-102.46.7-412.66,4.31-556.86,9.84Z"/><path class="cls-1" d="M558.21,137.63c-167.52-4.02-366.14-2.48-540.15-6.85,1.06-26.5,1.57-65.38,3.66-88.02,2.46-26.41-2.06-18.88-7.49,3.27C7.09,75.42,1.18,115.26,1.35,147.47c102.46-.7,412.66-4.31,556.86-9.84Z"/></g></svg>