<?xml version="1.0" encoding="UTF-8"?><svg id="Layer_1" xmlns="http://www.w3.org/2000/svg" viewBox="0 0 583 168"><defs><style>.cls-1{fill:currentColor;}</style></defs><g id="Button7"><path class="cls-1" d="M465.75,33.27c0-1.59,84.86-1.94,96.99-6.7,8.53-3.35-6.31,13.57-16.17,13.09-9.86-.48-80.83-4.8-80.83-6.39Z"/><path class="cls-1" d="M117.25,33.27c0-1.59-84.86-1.94-96.99-6.7-8.53-3.35,6.31,13.57,16.17,13.09,9.86-.48,80.83-4.8,80.83-6.39Z"/><path class="cls-1" d="M564.7,41.14c2.49,0,3.04,64.11,10.5,115.98,5.25,36.48-21.25-26.98-20.5-69.13.75-42.15,7.51-46.85,10-46.85Z"/><path class="cls-1" d="M290.45,152.98c0,2.49,229.2,3.04,266.92,10.52,26.53,5.26-19.62-21.29-50.27-20.54-30.65.75-216.65,7.52-216.65,10.02Z"/><path class="cls-1" d="M564.7,41.14c2.49,0,3.04,64.11,10.5,115.98,5.25,36.48-21.25-26.98-20.5-69.13.75-42.15,7.51-46.85,10-46.85Z"/><path class="cls-1" d="M290.45,152.98c0,2.49,229.2,3.04,266.92,10.52,26.53,5.26-19.62-21.29-50.27-20.54-30.65.75-216.65,7.52-216.65,10.02Z"/><path class="cls-1" d="M16.21,41.14c-2.49,0-3.04,64.11-10.5,115.98-5.25,36.48,21.25-26.98,20.5-69.13-.75-42.15-7.51-46.85-10-46.85Z"/><path class="cls-1" d="M290.45,152.98c0,2.49-229.2,3.04-266.92,10.52-26.53,5.26,19.62-21.29,50.27-20.54,30.65.75,216.65,7.52,216.65,10.02Z"/><path class="cls-1" d="M16.21,41.14c-2.49,0-3.04,64.11-10.5,115.98-5.25,36.48,21.25-26.98,20.5-69.13-.75-42.15-7.51-46.85-10-46.85Z"/><path class="cls-1" d="M290.45,152.98c0,2.49-229.2,3.04-266.92,10.52-26.53,5.26,19.62-21.29,50.27-20.54,30.65.75,216.65,7.52,216.65,10.02Z"/><path class="cls-1" d="M248.96,50.06c-3.36-11.69.42-24.92,8.3-34.3,17.35-21,51.15-21.02,68.5-.01,7.88,9.38,11.66,22.63,8.28,34.31-1.65-5.57-3.81-10.55-6.65-14.89-13.34-21.26-42.13-26.94-61.82-11.07-8.21,6.47-13.62,15.53-16.62,25.96h0Z"/><path class="cls-1" d="M0,44.68c37.05,9.35,88.13,9.46,129.85,5.69,55.96-4.59,105.65-21.16,158.15-19.98,8.73.07-3.89-4.06-7.48-4.5-5.94-1.21-13.95-2.12-22.21-2.42-25.89-.79-45.2,4.9-72.41,8.5C129.96,40.19,58.55,52.84,0,44.68Z"/><path class="cls-1" d="M583,44.68c-37.05,9.35-88.13,9.46-129.85,5.69-55.96-4.59-105.65-21.16-158.15-19.98-8.73.07,3.89-4.06,7.48-4.5,5.94-1.21,13.95-2.12,22.21-2.42,25.89-.79,45.2,4.9,72.41,8.5,55.95,8.23,127.36,20.88,185.91,12.72Z"/></g></svg>