<?xml version="1.0" encoding="UTF-8"?><svg id="Layer_1" xmlns="http://www.w3.org/2000/svg" viewBox="0 0 588 172"><defs><style>.cls-1{fill:currentColor;}</style></defs><g id="Button2"><path class="cls-1" d="M315.28,150.69h0s0,0,0,0c-10.71,2.19-19.08,10.57-21.27,21.28v.02s0-.02,0-.02c-2.19-10.71-10.56-19.09-21.27-21.28h0s0,0,0,0c10.71-2.19,19.08-10.57,21.27-21.28v-.02s0,.02,0,.02c2.19,10.71,10.56,19.09,21.27,21.28Z"/><path class="cls-1" d="M573.42,36.8c-4.91-1.42,2.87-8.81,4.88-9.83-122.52,9.96-428.39,7.53-574.74,2.66C3.26,46.05,1.87,69.64,0,83.97c-.25,5.05,5.99,45.43,6.63,55.52.64,10.09,11.98-66.62,12.5-70.66.51-4.04-5.05,6.95-5.74-10.09-.4-6.89-.62-10.75-1.1-20.35,133.24-4.13,459.88-.38,561.12-1.58Z"/><path class="cls-1" d="M14.58,139.27c4.91,1.42-2.87,8.81-4.88,9.83,122.52-9.96,428.39-7.53,574.74-2.66.3-16.41,1.69-40,3.55-54.33.25-5.05-5.99-45.43-6.63-55.52s-11.98,66.62-12.5,70.66,5.05-6.95,5.74,10.09c.4,6.89.62,10.75,1.1,20.35-133.24,4.13-459.88.38-561.12,1.58Z"/><path class="cls-1" d="M294,149.95c-54.85-2.24-126.81-1.05-182.91.59-10.39,1.47-23.91-2.35-25.35,8.51.05.5.16.62.27.41.12-.19.25-.77.57-1.46,2.27-4.78,7.5-2.91,11.73-2.03,8.47,1.96,21.02,4.83,31,3.93,46.14-4.67,117.46-6.32,164.68-9.94Z"/><path class="cls-1" d="M113.48,1.56c5.4-3.74,17.28-.53,19.21,6.97,1.25,2.05.36,9.92-.59,3.93-5.29-17.81-31.21-3.7-17.94,10.39,8.75,5.78,23.4,1.54,33.86,2.82,38.29.18,77.97.36,84.8.39,13.66,0,11.94-5.4,14.33-5.4s44.89,5.7,46.84,7.95c.49.56-10.53.78-27.46.79-34.93.03-92.39-.88-127.87-1.36-9.45-1.08-20.49,2.74-27.18-5.02-4.97-6.57-3.1-16.46,2-21.47Z"/><path class="cls-1" d="M294,149.95c54.85-2.24,126.81-1.05,182.91.59,10.39,1.47,23.91-2.35,25.35,8.51-.05.5-.16.62-.27.41-.12-.19-.25-.77-.57-1.46-2.27-4.78-7.5-2.91-11.73-2.03-8.47,1.96-21.02,4.83-31,3.93-46.14-4.67-117.46-6.32-164.68-9.94Z"/><path class="cls-1" d="M474.52,1.56c-5.4-3.74-17.28-.53-19.21,6.97-1.25,2.05-.36,9.92.59,3.93,5.29-17.81,31.21-3.7,17.94,10.39-8.75,5.78-23.4,1.54-33.86,2.82-38.29.18-77.97.36-84.8.39-13.66,0-11.94-5.4-14.33-5.4-2.39,0-44.89,5.7-46.84,7.95-.49.56,10.53.78,27.46.79,34.93.03,92.39-.88,127.87-1.36,9.45-1.08,20.49,2.74,27.18-5.02,4.97-6.57,3.1-16.46-2-21.47Z"/></g></svg>