<?xml version="1.0" encoding="UTF-8"?><svg id="Layer_1" xmlns="http://www.w3.org/2000/svg" viewBox="0 0 220 271"><defs><style>.cls-1{fill:currentColor;}</style></defs><g id="Circle1"><path class="cls-1" d="M87.76,68.11c-2.49,0-3.04-58.07-10.52-66.37-5.26-5.84,21.29,4.32,20.54,11.06-.75,6.74-7.52,55.31-10.02,55.31Z"/><path class="cls-1" d="M110.02,33.61c0,2.49-79.46,3.04-90.82,10.5-7.99,5.25,5.91-21.25,15.14-20.5,9.23.75,75.69,7.51,75.69,10Z"/><path class="cls-1" d="M.37,155.98C-4.27,102.94,35.53,53.33,87.57,43.3c52.82-11.2,108.16,18.84,126.26,69.76,4.94,13.84,7.06,28.58,5.84,42.93-1.23-14.32-4.76-28.23-10.83-40.86-20.76-44.7-70.66-70.81-119.15-61.18C40.64,62.85,3.69,106.53.37,155.98H.37Z"/><path class="cls-1" d="M132.27,68.11c2.49,0,3.04-58.07,10.52-66.37,5.26-5.84-21.29,4.32-20.54,11.06.75,6.74,7.52,55.31,10.02,55.31Z"/><path class="cls-1" d="M110.02,33.61c0,2.49,79.46,3.04,90.82,10.5,7.99,5.25-5.91-21.25-15.14-20.5-9.23.75-75.69,7.51-75.69,10Z"/><path class="cls-1" d="M110.02,247.17c0-2.49,79.46-3.04,90.82-10.5,7.99-5.25-5.91,21.25-15.14,20.5-9.23-.75-75.69-7.51-75.69-10Z"/><path class="cls-1" d="M110.02,247.17c0-2.49-79.46-3.04-90.82-10.5-7.99-5.25,5.91,21.25,15.14,20.5,9.23-.75,75.69-7.51,75.69-10Z"/><path class="cls-1" d="M.37,155.98c3.33,49.46,40.26,93.13,89.31,102.04,48.48,9.63,98.39-16.49,119.15-61.18,6.07-12.63,9.6-26.54,10.83-40.86,1.22,14.34-.89,29.09-5.84,42.93-18.11,50.93-73.43,80.95-126.26,69.75C35.54,258.64-4.28,209.01.37,155.98H.37Z"/></g></svg>