<?xml version="1.0" encoding="UTF-8"?><svg id="Layer_1" xmlns="http://www.w3.org/2000/svg" viewBox="0 0 308 308"><defs><style>.cls-1{fill:currentColor;}</style></defs><g id="Decor4"><path class="cls-1" d="M105.41,124.37c-1.39,1.39-65.78-62.4-79.1-67.41-9.37-3.52,16.59-7.07,23.62.8,7.03,7.86,56.86,65.22,55.48,66.61Z"/><path class="cls-1" d="M124.37,105.41c1.39-1.39-62.4-65.78-67.41-79.1-3.52-9.37-7.07,16.59.8,23.62,7.86,7.03,65.22,56.86,66.61,55.48Z"/><path class="cls-1" d="M202.59,183.63c1.39-1.39,65.78,62.4,79.1,67.41,9.37,3.52-16.59,7.07-23.62-.8-7.03-7.86-56.86-65.22-55.48-66.61Z"/><path class="cls-1" d="M183.63,202.59c-1.39,1.39,62.4,65.78,67.41,79.1,3.52,9.37,7.07-16.59-.8-23.62-7.86-7.03-65.22-56.86-66.61-55.48Z"/><path class="cls-1" d="M124.37,202.59c1.39,1.39-62.4,65.78-67.41,79.1-3.52,9.37-7.07-16.59.8-23.62,7.86-7.03,65.22-56.86,66.61-55.48Z"/><path class="cls-1" d="M105.41,183.63c-1.39-1.39-65.78,62.4-79.1,67.41-9.37,3.52,16.59,7.07,23.62-.8,7.03-7.86,56.86-65.22,55.48-66.61Z"/><path class="cls-1" d="M183.63,105.41c-1.39-1.39,62.4-65.78,67.41-79.1,3.52-9.37,7.07,16.59-.8,23.62-7.86,7.03-65.22,56.86-66.61,55.48Z"/><path class="cls-1" d="M202.59,124.37c1.39,1.39,65.78-62.4,79.1-67.41,9.37-3.52-16.59-7.07-23.62.8-7.03,7.86-56.86,65.22-55.48,66.61Z"/><path class="cls-1" d="M293.19,154.03c-11.79,24.77-23.62,50.55-42.02,71.77-24.37,27.75-56.17,52.19-92.86,59.51-7.01.89-4.43,1.85.41,2.6,20.26,2.24,44.23-1.04,58.89-15.41,36.37-30.05,65.02-72.42,75.58-118.47Z"/><path class="cls-1" d="M153.97,293.19c-24.77-11.79-50.55-23.62-71.77-42.02-27.75-24.37-52.19-56.17-59.51-92.86-.89-7.01-1.85-4.43-2.6.41-2.24,20.26,1.04,44.22,15.41,58.89,30.05,36.37,72.42,65.02,118.47,75.58Z"/><path class="cls-1" d="M14.81,153.97c11.79-24.77,23.62-50.55,42.02-71.77,24.37-27.75,56.17-52.19,92.86-59.51,7.01-.89,4.43-1.85-.41-2.6-20.26-2.24-44.22,1.04-58.89,15.41C54.02,65.56,25.37,107.92,14.81,153.97Z"/><path class="cls-1" d="M154.03,14.81c24.77,11.79,50.55,23.62,71.77,42.02,27.75,24.37,52.19,56.17,59.51,92.86.89,7.01,1.85,4.43,2.6-.41,2.24-20.26-1.04-44.22-15.41-58.89-30.05-36.37-72.42-65.02-118.47-75.58Z"/><path class="cls-1" d="M297.41,297.99c0-2.49-244.53-3.04-279.48-10.49-24.58-5.24,18.18,21.23,46.58,20.48,28.4-.75,232.9-7.5,232.9-9.99Z"/><path class="cls-1" d="M297.99,10.59c-2.49,0-3.04,244.53-10.49,279.48-5.24,24.58,21.23-18.18,20.48-46.58s-7.5-232.9-9.99-232.9Z"/><path class="cls-1" d="M10.59,10.01c0,2.49,244.53,3.04,279.48,10.49C314.65,25.75,271.89-.73,243.49.02,215.09.77,10.59,7.52,10.59,10.01Z"/><path class="cls-1" d="M10.01,297.41c2.49,0,3.04-244.53,10.49-279.48C25.75-6.65-.73,36.11.02,64.51s7.5,232.9,9.99,232.9Z"/><path class="cls-1" d="M130.79,43.73c-27.87,9.19-19.59,47.73,4.95,57.56,26.24,13.4,64.62-7.46,60.61-38.32-.6-6.32-2.47-11.67-3.7-16.23-1.93-6.46-5.98,1.13-7.95,3.31-2.97,4.55-7.53,7.4-10.76,11.62-1.79,21.89-21.67,33.18-41.02,21.28-13.74-8.81-15.24-29.54-2.14-39.22Z"/><path class="cls-1" d="M177.21,264.27c27.87-9.19,19.59-47.73-4.95-57.56-26.24-13.4-64.62,7.46-60.61,38.32.6,6.32,2.47,11.67,3.7,16.23,1.93,6.46,5.98-1.13,7.95-3.31,2.97-4.55,7.53-7.4,10.76-11.62,1.79-21.89,21.67-33.18,41.02-21.28,13.74,8.81,15.24,29.54,2.14,39.22Z"/><path class="cls-1" d="M264.27,130.79c-9.19-27.87-47.73-19.59-57.56,4.95-13.4,26.24,7.46,64.62,38.32,60.61,6.32-.6,11.67-2.47,16.23-3.7,6.46-1.93-1.13-5.98-3.31-7.95-4.55-2.97-7.4-7.53-11.62-10.76-21.89-1.79-33.18-21.67-21.28-41.02,8.81-13.74,29.54-15.24,39.22-2.14Z"/><path class="cls-1" d="M43.73,177.21c9.19,27.87,47.73,19.59,57.56-4.95,13.4-26.24-7.46-64.62-38.32-60.61-6.32.6-11.67,2.47-16.23,3.7-6.46,1.93,1.13,5.98,3.31,7.95,4.55,2.97,7.4,7.53,11.62,10.76,21.89,1.79,33.18,21.67,21.28,41.02-8.81,13.74-29.54,15.24-39.22,2.14Z"/></g></svg>