<?xml version="1.0" encoding="UTF-8"?><svg id="Layer_1" xmlns="http://www.w3.org/2000/svg" viewBox="0 0 323 351"><defs><style>.cls-1{fill:currentColor;}</style></defs><g id="Decor3"><path class="cls-1" d="M184.07,30.04l6.21-1.27-6.21-1.27c-10.72-2.19-19.11-10.57-21.3-21.3l-1.27-6.2-1.27,6.2c-2.19,10.72-10.57,19.11-21.3,21.3l-6.21,1.27,6.21,1.27c10.72,2.19,19.11,10.57,21.3,21.3l1.27,6.2,1.27-6.2c2.19-10.72,10.57-19.11,21.3-21.3Z"/><path class="cls-1" d="M184.07,320.96l6.21,1.27-6.21,1.27c-10.72,2.19-19.11,10.57-21.3,21.3l-1.27,6.2-1.27-6.2c-2.19-10.72-10.57-19.11-21.3-21.3l-6.21-1.27,6.21-1.27c10.72-2.19,19.11-10.57,21.3-21.3l1.27-6.2,1.27,6.2c2.19,10.72,10.57,19.11,21.3,21.3Z"/><path class="cls-1" d="M161.5,148.34c0-3.36-137.69-4.11-157.37-14.18-13.84-7.09,10.24,28.7,26.23,27.69,15.99-1.01,131.14-10.15,131.14-13.51Z"/><path class="cls-1" d="M161.5,148.34c0-3.36,137.69-4.11,157.37-14.18,13.84-7.09-10.24,28.7-26.23,27.69-15.99-1.01-131.14-10.15-131.14-13.51Z"/><path class="cls-1" d="M161.5,27.68c96.9-7.28,172.01,84.21,152.31,178.1-12.72,65.08-71.08,116.49-137.7,117.96-4.88.07-9.75-.05-14.61-.41,9.6-.91,19.13-2.41,28.45-4.87,75.2-19.55,124.16-93.65,109.33-170.36-12.54-66.79-70.48-115.44-137.78-120.42h0Z"/><path class="cls-1" d="M161.5,323.32C64.6,330.61-10.51,239.12,9.19,145.22,21.91,80.14,80.27,28.73,146.89,27.26c4.88-.07,9.75.05,14.61.41-9.6.91-19.13,2.41-28.45,4.87C57.85,52.1,8.9,126.2,23.72,202.91c12.54,66.79,70.48,115.44,137.78,120.42h0Z"/><path class="cls-1" d="M92.77,122.14c-.83-12.61,10.94-26.55,24.08-25.72,2.1.14,6.99.98,6.06,3.46-30.27,10.29-9.81,48.31,16.74,30.45,36.17-29-5.93-74.4-42.46-45.06-10.06,8.56-26.31,19.77-19.66,32.08,1.97,4.45,5.11,7.69,4.04,8.79-15.25,9.59-45.26,19.64-59.54,4.71-.14-1.1,2.4-1.7,3.64-2.12,7.17-2.29,13.19-4.61,19.86-9.29,25.48-18.15,45.01-57.08,81.81-53.07,31.45,2.56,46.1,44.6,22.66,65.49-13.42,12.91-32.84,12.9-45.51.38-3.89-3.37-10.47-4.75-11.71-10.08Z"/><path class="cls-1" d="M230.23,122.14c.83-12.61-10.94-26.55-24.08-25.72-2.1.14-6.99.98-6.06,3.46,30.27,10.29,9.81,48.31-16.74,30.45-36.17-29,5.93-74.4,42.46-45.06,10.06,8.56,26.31,19.77,19.66,32.08-1.97,4.45-5.11,7.69-4.04,8.79,15.25,9.59,45.26,19.64,59.54,4.71.14-1.1-2.4-1.7-3.64-2.12-7.17-2.29-13.19-4.61-19.86-9.29-25.48-18.15-45.01-57.08-81.81-53.07-31.45,2.56-46.1,44.6-22.66,65.49,13.42,12.91,32.84,12.9,45.51.38,3.89-3.37,10.47-4.75,11.71-10.08Z"/><path class="cls-1" d="M161.5,202.66c0,3.36-137.69,4.11-157.37,14.18-13.84,7.09,10.24-28.7,26.23-27.69,15.99,1.01,131.14,10.15,131.14,13.51Z"/><path class="cls-1" d="M161.5,202.66c0,3.36,137.69,4.11,157.37,14.18,13.84,7.09-10.24-28.7-26.23-27.69-15.99,1.01-131.14,10.15-131.14,13.51Z"/><path class="cls-1" d="M92.77,227.86c-.83,12.61,10.94,26.55,24.08,25.72,2.1-.14,6.99-.98,6.06-3.46-30.27-10.29-9.81-48.31,16.74-30.45,36.17,29-5.93,74.4-42.46,45.06-10.06-8.56-26.31-19.77-19.66-32.08,1.97-4.45,5.11-7.69,4.04-8.79-15.25-9.59-45.26-19.64-59.54-4.71-.14,1.1,2.4,1.7,3.64,2.12,7.17,2.29,13.19,4.61,19.86,9.29,25.48,18.15,45.01,57.08,81.81,53.07,31.45-2.56,46.1-44.6,22.66-65.49-13.42-12.91-32.84-12.9-45.51-.38-3.89,3.37-10.47,4.75-11.71,10.08Z"/><path class="cls-1" d="M230.23,227.86c.83,12.61-10.94,26.55-24.08,25.72-2.1-.14-6.99-.98-6.06-3.46,30.27-10.29,9.81-48.31-16.74-30.45-36.17,29,5.93,74.4,42.46,45.06,10.06-8.56,26.31-19.77,19.66-32.08-1.97-4.45-5.11-7.69-4.04-8.79,15.25-9.59,45.26-19.64,59.54-4.71.14,1.1-2.4,1.7-3.64,2.12-7.17,2.29-13.19,4.61-19.86,9.29-25.48,18.15-45.01,57.08-81.81,53.07-31.45-2.56-46.1-44.6-22.66-65.49,13.42-12.91,32.84-12.9,45.51-.38,3.89,3.37,10.47,4.75,11.71,10.08Z"/></g></svg>