<?xml version="1.0" encoding="UTF-8"?><svg id="Layer_1" xmlns="http://www.w3.org/2000/svg" viewBox="0 0 1337 72"><defs><style>.cls-1{fill:currentColor;}</style></defs><g id="Divider2"><path class="cls-1" d="M668.63.19c-.55-2.41-98.64,19.1-114.29,15.03-11.01-2.87,11.98,18.94,23.19,15.65,11.21-3.29,91.65-28.27,91.1-30.68Z"/><path class="cls-1" d="M668.5,39.07c0-3.96-569.95-4.83-651.4-16.7-57.3-8.35,42.37,33.79,108.57,32.6,66.2-1.19,542.84-11.94,542.84-15.9Z"/><path class="cls-1" d="M668.37.19c.55-2.41,98.64,19.1,114.29,15.03,11.01-2.87-11.98,18.94-23.19,15.65-11.21-3.29-91.65-28.27-91.1-30.68Z"/><path class="cls-1" d="M580.09,71.19c9.33-5.53,31.83-10.32,88.28-10.32s78.95,4.79,88.28,10.32c9.77,5.79-6.2-21.5-17.9-21.44-7.47.04-38.22,1.96-70.38,1.96s-62.91-1.92-70.38-1.96c-11.69-.06-27.67,27.23-17.9,21.44Z"/><path class="cls-1" d="M668.5,39.07c0-3.96,569.95-4.83,651.4-16.7,57.3-8.35-42.37,33.79-108.57,32.6-66.2-1.19-542.84-11.94-542.84-15.9Z"/></g></svg>