<?xml version="1.0" encoding="UTF-8"?><svg id="Layer_1" xmlns="http://www.w3.org/2000/svg" viewBox="0 0 1334 56"><defs><style>.cls-1{fill:currentColor;}</style></defs><g id="Divider1"><path class="cls-1" d="M1009.61,13.23c0-1.59,259.37-1.94,296.44-6.69,26.08-3.34-19.28,13.54-49.41,13.06-30.13-.48-247.03-4.78-247.03-6.37Z"/><path class="cls-1" d="M321.46,13.23c0-1.59-259.37-1.94-296.44-6.69-26.08-3.34,19.28,13.54,49.41,13.06,30.13-.48,247.03-4.78,247.03-6.37Z"/><path class="cls-1" d="M687.98,26.86l5.58,1.14-5.58,1.14c-10.72,2.19-19.11,10.57-21.3,21.29l-1.14,5.57-1.14-5.57c-2.19-10.72-10.58-19.1-21.3-21.29l-5.58-1.14,5.58-1.14c10.72-2.19,19.11-10.57,21.3-21.29l1.14-5.57,1.14,5.57c2.19,10.72,10.58,19.1,21.3,21.29Z"/><path class="cls-1" d="M667,27.02c-175.68-2.95-406.14-1.38-585.8.77C47.93,29.73,4.62,24.71,0,38.98c.17.66.52.81.87.54.37-.25.79-1.01,1.82-1.92,7.26-6.28,24.02-3.83,37.57-2.67,27.12,2.58,67.33,6.35,99.3,5.16,147.79-6.13,376.18-8.3,527.44-13.06Z"/><path class="cls-1" d="M667,27.02c175.68-2.95,406.14-1.38,585.8.77,33.28,1.93,76.58-3.08,81.2,11.18-.17.66-.52.81-.87.54-.37-.25-.79-1.01-1.82-1.92-7.26-6.28-24.02-3.83-37.57-2.67-27.12,2.58-67.33,6.35-99.3,5.16-147.79-6.13-376.18-8.3-527.44-13.06Z"/></g></svg>