<?xml version="1.0" encoding="UTF-8"?><svg id="Layer_1" xmlns="http://www.w3.org/2000/svg" viewBox="0 0 646 472"><defs><style>.cls-1{fill:currentColor;}</style></defs><g id="Window5"><path class="cls-1" d="M598.75,52.16c0-2.48,40.29-3.03,46.04-10.48,4.05-5.24-2.99,21.21-7.67,20.46-4.68-.75-38.37-7.5-38.37-9.98Z"/><path class="cls-1" d="M47.25,419.84c0,2.48-40.29,3.03-46.04,10.48-4.05,5.24,2.99-21.21,7.67-20.46,4.68.75,38.37,7.5,38.37,9.98Z"/><path class="cls-1" d="M622.37,452.83c0-2.48-510.48-3.03-583.44-10.48-51.32-5.24,37.95,21.21,97.24,20.46s486.2-7.5,486.2-9.98Z"/><path class="cls-1" d="M622.96,19.75c-2.49,0-3.04,368.73-10.5,421.43-5.25,37.07,21.26-27.41,20.51-70.24-.75-42.83-7.51-351.2-10-351.2Z"/><path class="cls-1" d="M23.63,19.17c0,2.48,510.48,3.03,583.44,10.48,51.32,5.24-37.95-21.21-97.24-20.46-59.29.75-486.2,7.5-486.2,9.98Z"/><path class="cls-1" d="M23.04,452.25c2.49,0,3.04-368.73,10.5-421.43C38.79-6.26,12.28,58.22,13.03,101.05s7.51,351.2,10,351.2Z"/><path class="cls-1" d="M560.77,464.08c-.03,1.41,62.19,3.07,70.99,7.5,6.19,3.12-4.36-12.17-11.6-11.9s-59.36,2.98-59.39,4.4Z"/><path class="cls-1" d="M85.23,7.92c.03-1.41-62.19-3.07-70.99-7.5-6.19-3.12,4.36,12.17,11.6,11.9,7.24-.27,59.36-2.98,59.39-4.4Z"/><path class="cls-1" d="M49.95,48.77c6.82,1.57,14.33-7.37,11.57-14.78-2.19-8.8-15.12-11.9-21.19-4.46-6.2,8.97-2.17,21.09-3.52,31.57-1.29,80.3-2.96,264.37-8.47,300.5-5.25,33.32,21.26-24.64,20.51-63.14-.53-29.68-4.43-183.52-6.73-250.22-.63-7.84-1.81-20.51,9.52-19.32,12.22,2.35,8.97,18.68-1.7,19.84Z"/><path class="cls-1" d="M596.05,423.23c-6.82-1.57-14.33,7.37-11.57,14.78,2.19,8.8,15.12,11.9,21.19,4.46,6.2-8.97,2.17-21.09,3.52-31.57,1.29-80.3,2.96-264.37,8.47-300.5,5.25-33.32-21.26,24.64-20.51,63.14.53,29.68,4.43,183.52,6.73,250.22.63,7.84,1.81,20.51-9.52,19.32-12.22-2.35-8.97-18.68,1.7-19.84Z"/></g></svg>