<?xml version="1.0" encoding="UTF-8"?><svg id="Layer_1" xmlns="http://www.w3.org/2000/svg" viewBox="0 0 670 510"><defs><style>.cls-1{fill:currentColor;}</style></defs><g id="Window3"><path class="cls-1" d="M58.19,307.51c2.49,0,3.04,180.98,10.51,198.76,5.25,12.5-21.26-9.25-20.51-23.69.75-14.45,7.51-175.07,10.01-175.07Z"/><path class="cls-1" d="M86.33,341.94c.06-1.17-47.12-3.87-53.68-7.72-4.62-2.71,2.99,10.15,8.49,10.08,5.5-.07,45.13-1.19,45.19-2.36Z"/><path class="cls-1" d="M86.33,364.38c.06-1.17-47.12-3.87-53.68-7.72-4.62-2.71,2.99,10.15,8.49,10.08,5.5-.07,45.13-1.19,45.19-2.36Z"/><path class="cls-1" d="M478.9,473.04c-45.76-3.16-143.03-4.49-143.9-4.49-.87,0-98.14,1.32-143.9,4.49,45.77,3.17,143.12,4.49,143.9,4.49.87,0,98.15-1.34,143.9-4.49Z"/><path class="cls-1" d="M58.77,299.14c-30.13-.1-47.01-35.49-27-58.64,13.95-16.19,40.07-16.22,54.03-.03,20.05,23.16,3.11,58.57-27.03,58.66h0ZM58.77,299.14c16.86.16,30.46-15.06,27.96-31.68-1.94-14.05-14.43-24.25-27.96-24.19-13.54-.1-26.08,10.12-28,24.19-2.49,16.63,11.14,31.84,28,31.68h0Z"/><path class="cls-1" d="M611.23,299.14c-30.13-.1-47.01-35.49-27-58.64,13.95-16.19,40.07-16.22,54.03-.03,20.05,23.16,3.11,58.57-27.03,58.66h0ZM611.23,299.14c16.86.16,30.46-15.06,27.96-31.68-1.94-14.05-14.43-24.25-27.96-24.19-13.54-.1-26.08,10.12-28,24.19-2.49,16.63,11.14,31.84,28,31.68h0Z"/><path class="cls-1" d="M26.96,71.3c-8.46-3.91-31.21-24.26-26.27-33.19,8.83,2.44,24.45,9.8,35.62,11.64,56.53,14.72,154.23,1.41,205.71-15.14,17.94-5.64,9.4-24.15,11.26-32.35,4.85-.34,49.52,1.98,63.89-.38,13.33-1.35,27.12-6.75,9.45,10.31-62.36,46.98-166.36,59.8-245.4,54.74-14.54-.24-30.28-6.66-40.75-4.13-5.02,1.04-9.72,8.98-13.52,8.49Z"/><path class="cls-1" d="M58.21,307.51c-3.12,0-3.81-240.05-13.15-274.35-6.57-24.13,26.61,17.84,25.67,45.73-.94,27.88-9.41,228.63-12.52,228.63Z"/><path class="cls-1" d="M611.79,307.51c3.12,0,3.81-240.05,13.15-274.35,6.57-24.13-26.61,17.84-25.67,45.73.94,27.88,9.41,228.63,12.52,228.63Z"/><path class="cls-1" d="M611.81,307.51c-2.49,0-3.04,180.98-10.51,198.76-5.25,12.5,21.26-9.25,20.51-23.69-.75-14.45-7.51-175.07-10.01-175.07Z"/><path class="cls-1" d="M583.67,341.94c-.06-1.17,47.12-3.87,53.68-7.72,4.62-2.71-2.99,10.15-8.49,10.08-5.5-.07-45.13-1.19-45.19-2.36Z"/><path class="cls-1" d="M583.67,364.38c-.06-1.17,47.12-3.87,53.68-7.72,4.62-2.71-2.99,10.15-8.49,10.08-5.5-.07-45.13-1.19-45.19-2.36Z"/><path class="cls-1" d="M643.04,71.3c8.46-3.91,31.21-24.26,26.27-33.19-8.83,2.44-24.45,9.8-35.62,11.64-56.53,14.72-154.23,1.41-205.71-15.14-17.94-5.64-9.4-24.15-11.26-32.35-4.85-.34-49.52,1.98-63.89-.38-13.33-1.35-27.12-6.75-9.45,10.31,62.36,46.98,166.36,59.8,245.4,54.74,14.54-.24,30.28-6.66,40.75-4.13,5.02,1.04,9.72,8.98,13.52,8.49Z"/><path class="cls-1" d="M292.44,75.11c-3.36-11.65.42-24.85,8.3-34.2,17.36-20.94,51.17-20.96,68.52-.01,7.89,9.35,11.67,22.56,8.29,34.21-1.65-5.56-3.81-10.52-6.65-14.85-13.34-21.19-42.15-26.86-61.84-11.04-8.21,6.45-13.62,15.48-16.63,25.89h0Z"/><path class="cls-1" d="M12.25,89.86c41.02,18.15,97.57,8.65,143.77,1.32,61.96-8.91,116.97-31.37,175.11-29.08,9.67.15-4.31-7.89-8.28-8.74-6.58-2.36-15.45-4.13-24.59-4.7-28.67-1.53-50.04,9.52-80.18,16.5-61.94,15.99-141.02,40.55-205.84,24.7Z"/><path class="cls-1" d="M657.75,89.86c-41.02,18.15-97.57,8.65-143.77,1.32-61.96-8.91-116.97-31.37-175.11-29.08-9.67.15,4.31-7.89,8.28-8.74,6.58-2.36,15.45-4.13,24.59-4.7,28.67-1.53,50.04,9.52,80.18,16.5,61.94,15.99,141.02,40.55,205.84,24.7Z"/><path class="cls-1" d="M657.75,463.26c-41.02-18.15-97.57-8.65-143.77-1.32-61.96,8.91-116.97,31.37-175.11,29.08-9.67-.15,4.31,7.89,8.28,8.74,6.58,2.36,15.45,4.13,24.59,4.7,28.67,1.53,50.04-9.52,80.18-16.5,61.94-15.99,141.02-40.55,205.84-24.7Z"/><path class="cls-1" d="M12.25,463.26c41.02-18.15,97.57-8.65,143.77-1.32,61.96,8.91,116.97,31.37,175.11,29.08,9.67-.15-4.31,7.89-8.28,8.74-6.58,2.36-15.45,4.13-24.59,4.7-28.67,1.53-50.04-9.52-80.18-16.5-61.94-15.99-141.02-40.55-205.84-24.7Z"/></g></svg>