<?xml version="1.0" encoding="UTF-8"?><svg id="Layer_1" xmlns="http://www.w3.org/2000/svg" viewBox="0 0 637 454"><defs><style>.cls-1{fill:currentColor;}</style></defs><g id="Window7"><path class="cls-1" d="M632.77,227h0s0,0,0,0c-10.72,2.19-19.1,10.57-21.29,21.29h0s0,0,0,0c-2.19-10.72-10.57-19.1-21.29-21.29h0s0,0,0,0c10.72-2.19,19.1-10.57,21.29-21.29h0s0,0,0,0c2.19,10.72,10.57,19.1,21.29,21.29Z"/><path class="cls-1" d="M587.9,97.86c.64-7.8,7.29-16.71,16.39-17.1,6.47-.77,13.1,3.62,14.49,10.07,2.41,7.34-5.54,15.67-12.69,11.78-3.7-1.7-4.5-9.09.23-8.81,1.5.71.95-1.3.11-2.06-5.02-4.32-11.72,2.95-10.41,8.59,2.55,13.76,23.21,12.29,27.25-.09,4.29-10.92-5.44-23.71-16.96-22.89-10.35-.02-20.46,10.7-18.41,20.51Z"/><path class="cls-1" d="M588.01,43.02c13.92,5.32,36.72,19.42,30.44,38.27,5.03,4.31,9.09,9.85,11.78,15.9,4.23,8.71,4.08,87.26,4.35,96.53.53,14.39,1.21,25.82,2.11,30.22,2.37,11.58-9.59-8.56-9.25-21.94.11-5.41.52-83.24.57-89.5,0-10.79-5.68-22.67-14.15-29.91,1-3.12,1.88-6.36,1.93-9.63-.66-14.14-18.41-23.43-27.78-29.93Z"/><path class="cls-1" d="M587.9,356.14c.64,7.8,7.29,16.71,16.39,17.1,6.47.77,13.1-3.62,14.49-10.07,2.41-7.34-5.54-15.67-12.69-11.78-3.7,1.7-4.5,9.09.23,8.81,1.5-.71.95,1.3.11,2.06-5.02,4.32-11.72-2.95-10.41-8.59,2.55-13.76,23.21-12.29,27.25.09,4.29,10.92-5.44,23.71-16.96,22.89-10.35.02-20.46-10.7-18.41-20.51Z"/><path class="cls-1" d="M588.01,410.98c13.92-5.32,36.72-19.42,30.44-38.27,5.03-4.31,9.09-9.85,11.78-15.9,4.23-8.71,4.08-87.26,4.35-96.53.53-14.39,1.21-25.82,2.11-30.22,2.37-11.58-9.59,8.56-9.25,21.94.11,5.41.52,83.24.57,89.5,0,10.79-5.68,22.67-14.15,29.91,1,3.12,1.88,6.36,1.93,9.63-.66,14.14-18.41,23.43-27.78,29.93Z"/><path class="cls-1" d="M4.23,227h0s0,0,0,0c10.72,2.19,19.1,10.57,21.29,21.29h0s0,0,0,0c2.19-10.72,10.57-19.1,21.29-21.29h0s0,0,0,0c-10.72-2.19-19.1-10.57-21.29-21.29h0s0,0,0,0c-2.19,10.72-10.57,19.1-21.29,21.29Z"/><path class="cls-1" d="M49.1,97.86c-.64-7.8-7.29-16.71-16.39-17.1-6.47-.77-13.1,3.62-14.49,10.07-2.41,7.34,5.54,15.67,12.69,11.78,3.7-1.7,4.5-9.09-.23-8.81-1.5.71-.95-1.3-.11-2.06,5.02-4.32,11.72,2.95,10.41,8.59-2.55,13.76-23.21,12.29-27.25-.09-4.29-10.92,5.44-23.71,16.96-22.89,10.35-.02,20.46,10.7,18.41,20.51Z"/><path class="cls-1" d="M48.99,43.02c-13.92,5.32-36.72,19.42-30.44,38.27-5.03,4.31-9.09,9.85-11.78,15.9-4.23,8.71-4.08,87.26-4.35,96.53-.53,14.39-1.21,25.82-2.11,30.22-2.37,11.58,9.59-8.56,9.25-21.94-.11-5.41-.52-83.24-.57-89.5,0-10.79,5.68-22.67,14.15-29.91-1-3.12-1.88-6.36-1.93-9.63.66-14.14,18.41-23.43,27.78-29.93Z"/><path class="cls-1" d="M49.1,356.14c-.64,7.8-7.29,16.71-16.39,17.1-6.47.77-13.1-3.62-14.49-10.07-2.41-7.34,5.54-15.67,12.69-11.78,3.7,1.7,4.5,9.09-.23,8.81-1.5-.71-.95,1.3-.11,2.06,5.02,4.32,11.72-2.95,10.41-8.59-2.55-13.76-23.21-12.29-27.25.09-4.29,10.92,5.44,23.71,16.96,22.89,10.35.02,20.46-10.7,18.41-20.51Z"/><path class="cls-1" d="M48.99,410.98c-13.92-5.32-36.72-19.42-30.44-38.27-5.03-4.31-9.09-9.85-11.78-15.9-4.23-8.71-4.08-87.26-4.35-96.53-.53-14.39-1.21-25.82-2.11-30.22-2.37-11.58,9.59,8.56,9.25,21.94-.11,5.41-.52,83.24-.57,89.5,0,10.79,5.68,22.67,14.15,29.91-1,3.12-1.88,6.36-1.93,9.63.66,14.14,18.41,23.43,27.78,29.93Z"/><path class="cls-1" d="M578.7,433.98c-27.5,5.16-93.81,9.63-260.2,9.63s-232.7-4.47-260.2-9.63c-28.81-5.41,18.29,20.08,52.75,20.02,22.01-.04,112.67-1.83,207.45-1.83s185.44,1.8,207.45,1.83c34.46.06,81.55-25.43,52.75-20.02Z"/><path class="cls-1" d="M39.73,17.58c5.16,22.14,9.63,75.5,9.63,209.42s-4.47,187.28-9.63,209.42c-5.41,23.18,20.07-14.72,20.02-42.45-.04-17.71-1.83-90.68-1.83-166.97s1.8-149.25,1.83-166.97c.06-27.74-25.43-65.64-20.02-42.45Z"/><path class="cls-1" d="M58.3,20.02c27.5-5.16,93.81-9.63,260.2-9.63s232.7,4.47,260.2,9.63C607.51,25.43,560.41-.06,525.95,0c-22.01.04-112.67,1.83-207.45,1.83S133.06.04,111.05,0C76.59-.06,29.49,25.43,58.3,20.02Z"/><path class="cls-1" d="M597.27,436.42c-5.16-22.14-9.63-75.5-9.63-209.42s4.47-187.28,9.63-209.42c5.41-23.18-20.07,14.72-20.02,42.45.04,17.71,1.83,90.68,1.83,166.97s-1.8,149.25-1.83,166.97c-.06,27.74,25.43,65.64,20.02,42.45Z"/></g></svg>